<?xml version="1.0" encoding="UTF-8"?>
<svg width="65px" height="65px" viewBox="0 0 65 65" version="1.1" xmlns="http://www.w3.org/2000/svg" xmlns:xlink="http://www.w3.org/1999/xlink">
    <!-- Generator: Sketch 47.1 (45422) - http://www.bohemiancoding.com/sketch -->
    <title>Group</title>
    <desc>Created with Sketch.</desc>
    <defs></defs>
    <g id="Page-1" stroke="none" stroke-width="1" fill="none" fill-rule="evenodd">
        <g id="Group" fill="#CFCFCF">
            <g id="tiles-3-5-copy" transform="translate(23.000000, 0.000000)">
                <rect id="Rectangle-path-Copy-3" x="0" y="0" width="19" height="14"></rect>
            </g>
            <g id="tiles-3-5-copy-4" transform="translate(23.000000, 18.000000)">
                <rect id="Rectangle-path-Copy-3" x="0" y="0" width="19" height="14"></rect>
            </g>
            <g id="tiles-3-5-copy-7" transform="translate(23.000000, 36.000000)">
                <rect id="Rectangle-path-Copy-3" x="0" y="0" width="19" height="14"></rect>
            </g>
            <g id="tiles-3-5-copy-10" transform="translate(23.000000, 54.000000)">
                <rect id="Rectangle-path-Copy-3" x="0" y="0" width="19" height="11"></rect>
            </g>
            <g id="tiles-3-5-copy-2">
                <rect id="Rectangle-path-Copy-3" x="0" y="0" width="19" height="14"></rect>
            </g>
            <g id="tiles-3-5-copy-5" transform="translate(0.000000, 18.000000)">
                <rect id="Rectangle-path-Copy-3" x="0" y="0" width="19" height="14"></rect>
            </g>
            <g id="tiles-3-5-copy-8" transform="translate(0.000000, 36.000000)">
                <rect id="Rectangle-path-Copy-3" x="0" y="0" width="19" height="14"></rect>
            </g>
            <g id="tiles-3-5-copy-11" transform="translate(0.000000, 54.000000)">
                <rect id="Rectangle-path-Copy-3" x="0" y="0" width="19" height="11"></rect>
            </g>
            <g id="tiles-3-5-copy-3" transform="translate(46.000000, 0.000000)">
                <rect id="Rectangle-path-Copy-3" x="0" y="0" width="19" height="14"></rect>
            </g>
            <g id="tiles-3-5-copy-6" transform="translate(46.000000, 18.000000)">
                <rect id="Rectangle-path-Copy-3" x="0" y="0" width="19" height="14"></rect>
            </g>
            <g id="tiles-3-5-copy-9" transform="translate(46.000000, 36.000000)">
                <rect id="Rectangle-path-Copy-3" x="0" y="0" width="19" height="14"></rect>
            </g>
            <g id="tiles-3-5-copy-12" transform="translate(46.000000, 54.000000)">
                <rect id="Rectangle-path-Copy-3" x="0" y="0" width="19" height="11"></rect>
            </g>
        </g>
    </g>
</svg>