<?xml version="1.0" encoding="UTF-8"?>
<svg width="64px" height="55px" viewBox="0 0 64 55" version="1.1" xmlns="http://www.w3.org/2000/svg" xmlns:xlink="http://www.w3.org/1999/xlink">
    <!-- Generator: Sketch 47.1 (45422) - http://www.bohemiancoding.com/sketch -->
    <title>tiles-4-1</title>
    <desc>Created with Sketch.</desc>
    <defs></defs>
    <g id="Page-1" stroke="none" stroke-width="1" fill="none" fill-rule="evenodd">
        <g id="tiles-4-1" fill="#CFCFCF">
            <rect id="Rectangle-path" x="0" y="0" width="13" height="9"></rect>
            <rect id="Rectangle-path-Copy-5" x="0" y="28" width="13" height="9"></rect>
            <rect id="Rectangle-path-Copy-4" x="51" y="17" width="13" height="9"></rect>
            <rect id="Rectangle-path-Copy-6" x="51" y="46" width="13" height="9"></rect>
            <rect id="Rectangle-path" x="17" y="0" width="13" height="11"></rect>
            <rect id="Rectangle-path-Copy-7" x="17" y="26" width="13" height="11"></rect>
            <rect id="Rectangle-path-Copy" x="0" y="13" width="13" height="11"></rect>
            <rect id="Rectangle-path-Copy-8" x="0" y="41" width="13" height="11"></rect>
            <rect id="Rectangle-path" x="34" y="0" width="13" height="7"></rect>
            <rect id="Rectangle-path-Copy-9" x="34" y="28" width="13" height="7"></rect>
            <rect id="Rectangle-path-Copy-2" x="17" y="15" width="13" height="7"></rect>
            <rect id="Rectangle-path-Copy-10" x="17" y="41" width="13" height="7"></rect>
            <rect id="Rectangle-path" x="51" y="0" width="13" height="13"></rect>
            <rect id="Rectangle-path-Copy-11" x="51" y="30" width="13" height="13"></rect>
            <rect id="Rectangle-path-Copy-3" x="34" y="11" width="13" height="13"></rect>
            <rect id="Rectangle-path-Copy-12" x="34" y="39" width="13" height="13"></rect>
        </g>
    </g>
</svg>